<svg width="40" height="40" viewBox="0 0 40 40" fill="none" xmlns="http://www.w3.org/2000/svg">
<path d="M20.6968 11.9106C15.8173 12.0603 11.9079 16.0604 11.9077 20.9761C11.9077 25.9866 15.9694 30.0483 20.98 30.0483C23.6296 30.0483 26.0128 28.9114 27.6714 27.1001L32.0854 31.5142C29.2958 34.4534 25.3521 36.2866 20.98 36.2866C12.5247 36.2865 5.67041 29.4314 5.67041 20.9761C5.67056 12.6155 12.3722 5.82147 20.6968 5.67041V11.9106Z" fill="white"/>
<ellipse cx="20.9799" cy="1.70109" rx="1.70108" ry="1.70109" fill="white"/>
<ellipse cx="1.70109" cy="1.70109" rx="1.70109" ry="1.70109" transform="matrix(0.965926 0.25882 -0.258818 0.965926 24.7671 0.274658)" fill="white"/>
<ellipse cx="1.70109" cy="1.70109" rx="1.70109" ry="1.70109" transform="matrix(0.866025 0.500001 -0.499999 0.866026 29.9971 1.96021)" fill="white"/>
<circle cx="1.70109" cy="1.70109" r="1.70109" transform="matrix(0.707105 0.707108 -0.707105 0.707108 34.6123 4.94214)" fill="white"/>
<ellipse cx="1.70109" cy="1.70109" rx="1.70109" ry="1.70109" transform="matrix(0.866025 0.500001 -0.499999 0.866026 10.7183 35.3525)" fill="white"/>
<circle cx="1.70109" cy="1.70109" r="1.70109" transform="matrix(0.707105 0.707108 -0.707105 0.707108 7.34766 32.2068)" fill="white"/>
<ellipse cx="1.70109" cy="1.70109" rx="1.70109" ry="1.70109" transform="matrix(0.499999 0.866026 -0.866025 0.500001 4.90674 28.2959)" fill="white"/>
<ellipse cx="1.70109" cy="1.70109" rx="1.70109" ry="1.70109" transform="matrix(0.258818 0.965926 -0.965926 0.25882 3.56104 23.8865)" fill="white"/>
<ellipse cx="1.70126" cy="20.9801" rx="1.70109" ry="1.70108" transform="rotate(90 1.70126 20.9801)" fill="white"/>
<ellipse cx="1.70109" cy="1.70109" rx="1.70109" ry="1.70109" transform="matrix(-0.258818 0.965926 -0.965926 -0.25882 4.44141 14.7874)" fill="white"/>
<ellipse cx="1.70109" cy="1.70109" rx="1.70109" ry="1.70109" transform="matrix(-0.499999 0.866026 -0.866025 -0.500001 6.60791 10.7178)" fill="white"/>
<circle cx="1.70109" cy="1.70109" r="1.70109" transform="matrix(-0.707105 0.707108 -0.707105 -0.707108 9.75342 7.34766)" fill="white"/>
<ellipse cx="1.70109" cy="1.70109" rx="1.70109" ry="1.70109" transform="matrix(-0.866025 0.500001 -0.499999 -0.866026 13.6646 4.90649)" fill="white"/>
<ellipse cx="1.70109" cy="1.70109" rx="1.70109" ry="1.70109" transform="matrix(-0.965926 0.25882 -0.258818 -0.965926 18.0737 3.56079)" fill="white"/>
</svg>
