<svg width="24" height="24" viewBox="0 0 24 24" fill="none" xmlns="http://www.w3.org/2000/svg">
<path d="M11 2C15.9706 2 20 6.02944 20 11C20 13.1244 19.2613 15.0748 18.0303 16.6143L21.707 20.291C22.0972 20.6815 22.0972 21.3146 21.707 21.7051C21.3166 22.0955 20.6835 22.0954 20.293 21.7051L16.6172 18.0293C15.0774 19.2614 13.1255 20 11 20C6.02944 20 2 15.9706 2 11C2 6.02944 6.02944 2 11 2ZM11 4C7.13401 4 4 7.13401 4 11C4 14.866 7.13401 18 11 18C12.889 18 14.6021 17.2505 15.8613 16.0342C15.8864 16.0021 15.9138 15.9709 15.9434 15.9414C15.9726 15.9121 16.0034 15.8852 16.0352 15.8604C17.2509 14.6012 18 12.8885 18 11C18 7.13401 14.866 4 11 4Z" fill="white"/>
</svg>
